# xmcd
#
# Track frame offsets:
#	150
#	20530
#	47844
#	68127
#	103340
#	123108
#	176486
#	194265
#	227632
#
# Disc length: 3366 seconds
#
# Revision: 1
# Processed by: cddbd v1.5.2PL0 Copyright (c) Steve Scherf et al.
# Submitted via: audiograbber 1.83.01
#
DISCID=750d2409
DTITLE=Eric Clapton - One more car, one more rider - Live on Tour 2001 CD2
DYEAR=2001
DGENRE=Blues/Rock/Pop
TTITLE0=I want a little girl
TTITLE1=Badge
TTITLE2=Hoochie coochie man
TTITLE3=Have you ever loved a woman
TTITLE4=Cocaine
TTITLE5=Wonderful tonight
TTITLE6=Layla
TTITLE7=Sunshine of your love
TTITLE8=Over the rainbow
EXTD=
EXTT0=
EXTT1=
EXTT2=
EXTT3=
EXTT4=
EXTT5=
EXTT6=
EXTT7=
EXTT8=
PLAYORDER=
